<svg width="60" height="61" viewBox="0 0 60 61" fill="none" xmlns="http://www.w3.org/2000/svg">
<rect y="0.476196" width="60" height="60" rx="30" fill="#6A2BFF"/>
<path d="M20.4126 39.2188C23.9369 36.0827 26.5951 33.42 28.3872 31.2306C30.1792 29.0413 31.0752 27.2218 31.0752 25.7721C31.0752 24.8253 30.7765 24.1005 30.1792 23.5975C29.6117 23.0945 28.8352 22.8431 27.8496 22.8431C25.9978 22.8431 24.0713 23.42 22.0702 24.5738L19.875 17.9614C21.5177 17.133 23.1305 16.5117 24.7135 16.0975C26.3263 15.6833 28.0138 15.4762 29.776 15.4762C31.8667 15.4762 33.6886 15.8904 35.2417 16.7188C36.8247 17.5176 38.0343 18.6271 38.8706 20.0472C39.7069 21.4377 40.125 23.0354 40.125 24.8401C40.125 27.5324 39.214 30.0472 37.3921 32.3845C35.5702 34.6922 32.8225 36.8963 29.1488 38.9969H39.9458V45.4762H20.4126V39.2188Z" fill="white"/>
</svg>
