<svg width="60" height="61" viewBox="0 0 60 61" fill="none" xmlns="http://www.w3.org/2000/svg">
<rect y="0.476196" width="60" height="60" rx="30" fill="#6A2BFF"/>
<path d="M28.9615 45.4762C25.8173 45.4762 22.9183 44.9093 20.2644 43.7756L21.6923 37.3657C23.9712 38.296 26.0913 38.7611 28.0529 38.7611C30.4183 38.7611 31.601 37.8745 31.601 36.1012C31.601 34.8512 30.9952 33.9646 29.7837 33.4413C28.5721 32.9181 26.5529 32.6564 23.726 32.6564V27.2495C26.2933 27.2495 28.2115 26.9878 29.4808 26.4646C30.7788 25.9413 31.4279 25.2 31.4279 24.2407C31.4279 22.9326 30.3173 22.2785 28.0962 22.2785C25.9904 22.2785 23.8125 22.7727 21.5625 23.7611L19.875 17.8308C23.0481 16.2611 26.3798 15.4762 29.8702 15.4762C32.524 15.4762 34.6731 16.1157 36.3173 17.3948C37.9904 18.6739 38.8269 20.4181 38.8269 22.6274C38.8269 24.0518 38.4519 25.3454 37.7019 26.5082C36.9808 27.671 36 28.6012 34.7596 29.2989C36.4038 30.0547 37.7019 31.0867 38.6538 32.3948C39.6346 33.7029 40.125 35.1564 40.125 36.7553C40.125 38.5285 39.649 40.0692 38.6971 41.3774C37.774 42.6855 36.4615 43.7029 34.7596 44.4297C33.0865 45.1274 31.1538 45.4762 28.9615 45.4762Z" fill="white"/>
</svg>
