<svg width="20" height="21" viewBox="0 0 20 21" fill="none" xmlns="http://www.w3.org/2000/svg">
<path d="M9.6 3.47607C5.9618 3.47607 3 6.43787 3 10.0761C3 13.7143 5.9618 16.6761 9.6 16.6761C13.2382 16.6761 16.2 13.7143 16.2 10.0761C16.2 6.43787 13.2382 3.47607 9.6 3.47607ZM9.6 4.67607C12.589 4.67607 15 7.08707 15 10.0761C15 13.0651 12.589 15.4761 9.6 15.4761C6.611 15.4761 4.2 13.0651 4.2 10.0761C4.2 7.08707 6.611 4.67607 9.6 4.67607ZM9.6 5.67607C9.26876 5.67607 9 5.94483 9 6.27607V10.0761C9 10.2417 9.06641 10.3925 9.175 10.5011L11.5812 12.9073C11.8156 13.1417 12.1968 13.1417 12.4312 12.9073C12.6656 12.6729 12.6656 12.2917 12.4312 12.0573L10.2 9.82607V6.27607C10.2 5.94483 9.93124 5.67607 9.6 5.67607Z" fill="#6837FF"/>
</svg>
