<svg width="17" height="17" viewBox="0 0 17 17" fill="none" xmlns="http://www.w3.org/2000/svg">
<path d="M12.2627 11.7015L9.39589 14.5684C9.27051 14.6939 9.12163 14.7934 8.95776 14.8614C8.79388 14.9293 8.61823 14.9643 8.44083 14.9643C8.26344 14.9643 8.08778 14.9293 7.92391 14.8614C7.76003 14.7934 7.61115 14.6939 7.48578 14.5684L4.61825 11.7015C3.86232 10.9456 3.34754 9.98244 3.139 8.93391C2.93046 7.88539 3.03752 6.79857 3.44664 5.81089C3.85577 4.82321 4.54858 3.97903 5.43748 3.3851C6.32638 2.79116 7.37143 2.47415 8.44049 2.47415C9.50956 2.47415 10.5546 2.79116 11.4435 3.3851C12.3324 3.97903 13.0252 4.82321 13.4343 5.81089C13.8435 6.79857 13.9505 7.88539 13.742 8.93391C13.5334 9.98244 13.0187 10.9456 12.2627 11.7015V11.7015Z" stroke="#1E144D" stroke-width="1.35133" stroke-linecap="round" stroke-linejoin="round"/>
<path d="M9.87437 9.3126C10.2545 8.93246 10.4681 8.41689 10.4681 7.8793C10.4681 7.3417 10.2545 6.82613 9.87437 6.44599C9.49423 6.06585 8.97866 5.85229 8.44106 5.85229C7.90347 5.85229 7.38789 6.06585 7.00776 6.44599C6.62762 6.82613 6.41406 7.3417 6.41406 7.8793C6.41406 8.41689 6.62762 8.93246 7.00776 9.3126C7.38789 9.69274 7.90347 9.9063 8.44106 9.9063C8.97866 9.9063 9.49423 9.69274 9.87437 9.3126Z" stroke="#1E144D" stroke-width="1.35133" stroke-linecap="round" stroke-linejoin="round"/>
</svg>
