<svg width="191" height="191" viewBox="0 0 191 191" fill="none" xmlns="http://www.w3.org/2000/svg">
<rect x="0.428711" width="190.476" height="190.476" rx="95.2381" fill="#F1EDFF"/>
<path d="M97.4002 76.9485C101.586 78.2099 105.529 80.4943 108.836 83.8018C119.529 94.4947 119.529 111.831 108.836 122.524L85.2661 146.095C74.5732 156.787 57.2365 156.787 46.5436 146.095C35.8507 135.402 35.8507 118.065 46.5436 107.372L64.0668 89.8488" stroke="#6A2BFF" stroke-width="5"/>
<path d="M95.4275 115.261C91.2419 114 87.2988 111.715 83.9913 108.408C73.2984 97.7149 73.2984 80.3782 83.9913 69.6853L107.562 46.1151C118.254 35.4221 135.591 35.4221 146.284 46.1151C156.977 56.808 156.977 74.1447 146.284 84.8376L128.761 102.361" stroke="#6A2BFF" stroke-width="5"/>
</svg>
