<svg width="36" height="30" viewBox="0 0 36 30" fill="none" xmlns="http://www.w3.org/2000/svg">
<path d="M35.168 0.459551L35.168 7.61151C35.168 10.0152 34.7734 12.5174 33.9843 15.1181C33.1558 17.7582 31.9721 20.2801 30.4334 22.6838C28.8947 25.1269 27.0403 27.2351 24.8703 29.0083L18.6562 24.6935C20.4711 22.0928 21.8717 19.4132 22.8581 16.6549C23.8445 13.936 24.3377 10.9806 24.3377 7.78884L24.3377 0.45955L35.168 0.459551ZM16.5256 0.459549L16.5256 7.61151C16.5256 10.0152 16.1311 12.5174 15.342 15.1181C14.5134 17.7582 13.3298 20.2801 11.7911 22.6838C10.2523 25.1269 8.39795 27.2351 6.22794 29.0083L0.0138248 24.6935C1.82874 22.0928 3.22938 19.4132 4.21575 16.6549C5.20212 13.936 5.6953 10.9806 5.6953 7.78883L5.6953 0.459548L16.5256 0.459549Z" fill="#6A2BFF"/>
</svg>
